STARTFONT 2.1
FONT -PixelifySans-Bold-R-Normal--22-100-75-75-P-100-ISO10646-1
SIZE 22 75 75
FONTBOUNDINGBOX 17 19 0 -5
STARTPROPERTIES 3
FONT_ASCENT 16
FONT_DESCENT 4
DEFAULT_CHAR 32
ENDPROPERTIES
CHARS 95
STARTCHAR U+0020
ENCODING 32
SWIDTH 182 0
DWIDTH 4 0
BBX 1 1 0 0
BITMAP
00
ENDCHAR
STARTCHAR U+0021
ENCODING 33
SWIDTH 273 0
DWIDTH 6 0
BBX 3 14 1 0
BITMAP
E0
E0
E0
E0
E0
E0
E0
E0
E0
E0
00
E0
E0
E0
ENDCHAR
STARTCHAR U+0022
ENCODING 34
SWIDTH 500 0
DWIDTH 11 0
BBX 8 5 1 9
BITMAP
EE
EE
FF
66
66
ENDCHAR
STARTCHAR U+0023
ENCODING 35
SWIDTH 682 0
DWIDTH 15 0
BBX 13 14 1 0
BITMAP
38E0
38E0
38E0
FFF8
FFF8
FFF8
38E0
38E0
FFF8
FFF8
FFF8
38E0
38E0
38E0
ENDCHAR
STARTCHAR U+0024
ENCODING 36
SWIDTH 591 0
DWIDTH 13 0
BBX 11 18 1 -2
BITMAP
0E00
0E00
3F80
3F80
FFE0
E0E0
E0E0
E000
3F80
3FE0
3FE0
00E0
E0E0
FFE0
3F80
3F80
0E00
0E00
ENDCHAR
STARTCHAR U+0025
ENCODING 37
SWIDTH 864 0
DWIDTH 19 0
BBX 17 14 1 0
BITMAP
380700
380700
FE1F00
FE1C00
FE7C00
387000
39F000
07CE00
07CE00
1F3F80
1C3F80
7C3F80
700E00
700E00
ENDCHAR
STARTCHAR U+0026
ENCODING 38
SWIDTH 682 0
DWIDTH 15 0
BBX 13 14 1 0
BITMAP
3F80
3F80
FFE0
E0E0
E0E0
F1C0
3F80
3F80
3F80
FBE0
E0E0
FFF8
3FB8
3FB8
ENDCHAR
STARTCHAR U+0027
ENCODING 39
SWIDTH 273 0
DWIDTH 6 0
BBX 4 5 1 9
BITMAP
E0
E0
F0
60
60
ENDCHAR
STARTCHAR U+0028
ENCODING 40
SWIDTH 409 0
DWIDTH 9 0
BBX 7 19 1 -3
BITMAP
0E
0E
0E
3E
38
38
38
F8
E0
E0
E0
F8
38
38
3E
0E
0E
0E
0E
ENDCHAR
STARTCHAR U+0029
ENCODING 41
SWIDTH 409 0
DWIDTH 9 0
BBX 7 19 1 -3
BITMAP
E0
E0
E0
F8
38
38
38
3E
0E
0E
0E
3E
38
38
F8
E0
E0
E0
E0
ENDCHAR
STARTCHAR U+002A
ENCODING 42
SWIDTH 273 0
DWIDTH 6 0
BBX 4 5 1 9
BITMAP
60
F0
F0
F0
F0
ENDCHAR
STARTCHAR U+002B
ENCODING 43
SWIDTH 591 0
DWIDTH 13 0
BBX 11 11 1 1
BITMAP
0E00
0E00
0E00
0E00
FFE0
FFE0
FFE0
0E00
0E00
0E00
0E00
ENDCHAR
STARTCHAR U+002C
ENCODING 44
SWIDTH 273 0
DWIDTH 6 0
BBX 4 5 0 -2
BITMAP
70
70
70
C0
C0
ENDCHAR
STARTCHAR U+002D
ENCODING 45
SWIDTH 409 0
DWIDTH 9 0
BBX 7 3 1 4
BITMAP
FE
FE
FE
ENDCHAR
STARTCHAR U+002E
ENCODING 46
SWIDTH 273 0
DWIDTH 6 0
BBX 3 3 1 0
BITMAP
E0
E0
E0
ENDCHAR
STARTCHAR U+002F
ENCODING 47
SWIDTH 545 0
DWIDTH 12 0
BBX 10 14 1 0
BITMAP
01C0
0380
0380
0700
0700
0E00
0E00
1C00
1C00
3800
3800
7000
7000
E000
ENDCHAR
STARTCHAR U+0030
ENCODING 48
SWIDTH 591 0
DWIDTH 13 0
BBX 11 14 1 0
BITMAP
3F80
3F80
FFE0
E0E0
E0E0
E0E0
E0E0
E0E0
E0E0
E0E0
E0E0
FFE0
3F80
3F80
ENDCHAR
STARTCHAR U+0031
ENCODING 49
SWIDTH 409 0
DWIDTH 9 0
BBX 7 14 1 0
BITMAP
3E
3E
FE
EE
EE
0E
0E
0E
0E
0E
0E
0E
0E
0E
ENDCHAR
STARTCHAR U+0032
ENCODING 50
SWIDTH 591 0
DWIDTH 13 0
BBX 11 14 1 0
BITMAP
3F80
3F80
FFE0
E0E0
E0E0
00E0
3F80
FF80
FF80
E000
E000
FFE0
FFE0
FFE0
ENDCHAR
STARTCHAR U+0033
ENCODING 51
SWIDTH 591 0
DWIDTH 13 0
BBX 11 14 1 0
BITMAP
3F80
3F80
FFE0
E0E0
E0E0
00E0
3F80
3FE0
00E0
E0E0
E0E0
FFE0
3F80
3F80
ENDCHAR
STARTCHAR U+0034
ENCODING 52
SWIDTH 591 0
DWIDTH 13 0
BBX 11 14 1 0
BITMAP
03E0
03E0
0FE0
0EE0
3EE0
38E0
F8E0
FFE0
FFE0
FFE0
00E0
00E0
00E0
00E0
ENDCHAR
STARTCHAR U+0035
ENCODING 53
SWIDTH 591 0
DWIDTH 13 0
BBX 11 14 1 0
BITMAP
FF80
FF80
FFE0
E0E0
E0E0
E000
FF80
FFC0
FFE0
00E0
00E0
FFE0
FFC0
FF80
ENDCHAR
STARTCHAR U+0036
ENCODING 54
SWIDTH 591 0
DWIDTH 13 0
BBX 11 14 1 0
BITMAP
3F80
3F80
FFE0
E0E0
E0E0
E000
FF80
FFE0
FFE0
E0E0
E0E0
FFE0
3F80
3F80
ENDCHAR
STARTCHAR U+0037
ENCODING 55
SWIDTH 591 0
DWIDTH 13 0
BBX 11 14 1 0
BITMAP
3FE0
3FE0
FFE0
E0E0
E0E0
01C0
01C0
0380
0380
0700
0700
0700
0700
0700
ENDCHAR
STARTCHAR U+0038
ENCODING 56
SWIDTH 591 0
DWIDTH 13 0
BBX 11 14 1 0
BITMAP
3F80
3F80
FFE0
E0E0
E0E0
E0E0
3F80
FFE0
E0E0
E0E0
E0E0
FFE0
3F80
3F80
ENDCHAR
STARTCHAR U+0039
ENCODING 57
SWIDTH 591 0
DWIDTH 13 0
BBX 11 14 1 0
BITMAP
3F80
3F80
FFE0
E0E0
E0E0
E0E0
3FE0
3FE0
00E0
E0E0
E0E0
FFE0
3F80
3F80
ENDCHAR
STARTCHAR U+003A
ENCODING 58
SWIDTH 273 0
DWIDTH 6 0
BBX 3 7 1 2
BITMAP
E0
E0
E0
00
E0
E0
E0
ENDCHAR
STARTCHAR U+003B
ENCODING 59
SWIDTH 273 0
DWIDTH 6 0
BBX 4 9 0 0
BITMAP
70
70
70
00
70
70
70
E0
E0
ENDCHAR
STARTCHAR U+003C
ENCODING 60
SWIDTH 591 0
DWIDTH 13 0
BBX 11 18 1 -2
BITMAP
00E0
00E0
03E0
0380
0F80
0E00
3E00
3800
F800
F800
3800
3E00
0E00
0F80
0380
03E0
00E0
00E0
ENDCHAR
STARTCHAR U+003D
ENCODING 61
SWIDTH 591 0
DWIDTH 13 0
BBX 9 7 2 2
BITMAP
FF80
FF80
FF80
0000
FF80
FF80
FF80
ENDCHAR
STARTCHAR U+003E
ENCODING 62
SWIDTH 591 0
DWIDTH 13 0
BBX 11 18 1 -2
BITMAP
E000
E000
F800
3800
3E00
0E00
0F80
0380
03E0
03E0
0380
0F80
0E00
3E00
3800
F800
E000
E000
ENDCHAR
STARTCHAR U+003F
ENCODING 63
SWIDTH 591 0
DWIDTH 13 0
BBX 11 14 1 0
BITMAP
3F80
3F80
FFE0
E0E0
E0E0
E1E0
03C0
0780
0F00
0E00
0000
0E00
0E00
0E00
ENDCHAR
STARTCHAR U+0040
ENCODING 64
SWIDTH 682 0
DWIDTH 15 0
BBX 12 14 1 0
BITMAP
3F80
3F80
FFF0
E070
EF70
E970
E970
EF70
E7C0
E7C0
E000
FFE0
3FE0
3FE0
ENDCHAR
STARTCHAR U+0041
ENCODING 65
SWIDTH 591 0
DWIDTH 13 0
BBX 11 14 1 0
BITMAP
0E00
0E00
3F80
3B80
FBE0
E0E0
E0E0
FFE0
FFE0
FFE0
E0E0
E0E0
E0E0
E0E0
ENDCHAR
STARTCHAR U+0042
ENCODING 66
SWIDTH 591 0
DWIDTH 13 0
BBX 11 14 1 0
BITMAP
3F80
3F80
FFE0
E0E0
E0E0
E0E0
EF80
EFE0
EFE0
E0E0
E0E0
FFE0
FF80
FF80
ENDCHAR
STARTCHAR U+0043
ENCODING 67
SWIDTH 591 0
DWIDTH 13 0
BBX 11 14 1 0
BITMAP
3F80
3F80
FFE0
E0E0
E0E0
E0E0
E000
E000
E0E0
E0E0
E0E0
FFE0
3F80
3F80
ENDCHAR
STARTCHAR U+0044
ENCODING 68
SWIDTH 591 0
DWIDTH 13 0
BBX 11 14 1 0
BITMAP
FE00
FE00
FF80
E380
E3E0
E0E0
E0E0
E0E0
E0E0
E3E0
E380
FF80
FE00
FE00
ENDCHAR
STARTCHAR U+0045
ENCODING 69
SWIDTH 591 0
DWIDTH 13 0
BBX 11 14 1 0
BITMAP
3F80
3F80
FFE0
E0E0
E0E0
E000
FE00
FE00
FE00
E0E0
E0E0
FFE0
3F80
3F80
ENDCHAR
STARTCHAR U+0046
ENCODING 70
SWIDTH 591 0
DWIDTH 13 0
BBX 11 14 1 0
BITMAP
FF80
FF80
FFE0
E0E0
E0E0
E000
FE00
FE00
FE00
E000
E000
E000
E000
E000
ENDCHAR
STARTCHAR U+0047
ENCODING 71
SWIDTH 591 0
DWIDTH 13 0
BBX 11 14 1 0
BITMAP
3F80
3F80
FFE0
E0E0
E0E0
E0E0
EE00
EFE0
EFE0
E3E0
E0E0
FFE0
3F80
3F80
ENDCHAR
STARTCHAR U+0048
ENCODING 72
SWIDTH 682 0
DWIDTH 15 0
BBX 13 14 1 0
BITMAP
3838
3838
F8F8
E0E0
E0E0
E0E0
FFE0
FFE0
FFE0
E0E0
E0E0
E0E0
E0E0
E0E0
ENDCHAR
STARTCHAR U+0049
ENCODING 73
SWIDTH 409 0
DWIDTH 9 0
BBX 7 14 1 0
BITMAP
FE
FE
FE
38
38
38
38
38
38
38
38
FE
FE
FE
ENDCHAR
STARTCHAR U+004A
ENCODING 74
SWIDTH 591 0
DWIDTH 13 0
BBX 11 14 1 0
BITMAP
3F80
3F80
3FE0
00E0
00E0
00E0
00E0
E0E0
E0E0
E0E0
E0E0
FFE0
3F80
3F80
ENDCHAR
STARTCHAR U+004B
ENCODING 75
SWIDTH 591 0
DWIDTH 13 0
BBX 11 14 1 0
BITMAP
38E0
38E0
FBE0
E380
EF80
EE00
FE00
FE00
FE00
EF80
E380
E3E0
E0E0
E0E0
ENDCHAR
STARTCHAR U+004C
ENCODING 76
SWIDTH 591 0
DWIDTH 13 0
BBX 11 14 1 0
BITMAP
E000
E000
E000
E000
E000
E000
E000
E000
E000
E0E0
E0E0
FFE0
3F80
3F80
ENDCHAR
STARTCHAR U+004D
ENCODING 77
SWIDTH 773 0
DWIDTH 17 0
BBX 15 14 1 0
BITMAP
3838
3838
FEFE
EEEE
EEEE
EEEE
E38E
E38E
E38E
E38E
E38E
E38E
E00E
E00E
ENDCHAR
STARTCHAR U+004E
ENCODING 78
SWIDTH 591 0
DWIDTH 13 0
BBX 11 14 1 0
BITMAP
E0E0
E0E0
F8E0
F8E0
FEE0
EEE0
EEE0
EEE0
EEE0
EFE0
E3E0
E3E0
E0E0
E0E0
ENDCHAR
STARTCHAR U+004F
ENCODING 79
SWIDTH 591 0
DWIDTH 13 0
BBX 11 14 1 0
BITMAP
3F80
3F80
FFE0
E0E0
E0E0
E0E0
E0E0
E0E0
E0E0
E0E0
E0E0
FFE0
3F80
3F80
ENDCHAR
STARTCHAR U+0050
ENCODING 80
SWIDTH 591 0
DWIDTH 13 0
BBX 11 14 1 0
BITMAP
3F80
3F80
FFE0
E0E0
E0E0
E0E0
E0E0
FFE0
FF80
FF80
E000
E000
E000
E000
ENDCHAR
STARTCHAR U+0051
ENCODING 81
SWIDTH 591 0
DWIDTH 13 0
BBX 11 18 1 -4
BITMAP
3F80
3F80
FFE0
E0E0
E0E0
E0E0
E0E0
E0E0
E0E0
E0E0
E0E0
FFE0
3F80
3F80
0E00
0F80
0380
0380
ENDCHAR
STARTCHAR U+0052
ENCODING 82
SWIDTH 591 0
DWIDTH 13 0
BBX 11 14 1 0
BITMAP
3F80
3F80
FFE0
E0E0
E0E0
E0E0
E0E0
FFE0
FF80
FF80
E700
E7C0
E1C0
E1C0
ENDCHAR
STARTCHAR U+0053
ENCODING 83
SWIDTH 591 0
DWIDTH 13 0
BBX 11 14 1 0
BITMAP
3F80
3F80
FFE0
E0E0
E0E0
E000
3F80
3FE0
3FE0
E0E0
E0E0
FFE0
3F80
3F80
ENDCHAR
STARTCHAR U+0054
ENCODING 84
SWIDTH 591 0
DWIDTH 13 0
BBX 11 14 1 0
BITMAP
3F80
3F80
FFE0
EEE0
EEE0
0E00
0E00
0E00
0E00
0E00
0E00
0E00
0E00
0E00
ENDCHAR
STARTCHAR U+0055
ENCODING 85
SWIDTH 591 0
DWIDTH 13 0
BBX 11 14 1 0
BITMAP
E0E0
E0E0
E0E0
E0E0
E0E0
E0E0
E0E0
E0E0
E0E0
E0E0
E0E0
FFE0
3F80
3F80
ENDCHAR
STARTCHAR U+0056
ENCODING 86
SWIDTH 591 0
DWIDTH 13 0
BBX 11 14 1 0
BITMAP
E0E0
E0E0
E0E0
E0E0
E0E0
E0E0
E0E0
FBE0
3B80
3B80
3B80
3F80
0E00
0E00
ENDCHAR
STARTCHAR U+0057
ENCODING 87
SWIDTH 773 0
DWIDTH 17 0
BBX 15 14 1 0
BITMAP
E00E
E00E
E38E
E38E
E38E
E38E
E38E
EFEE
EEEE
EEEE
EEEE
FEFE
3838
3838
ENDCHAR
STARTCHAR U+0058
ENCODING 88
SWIDTH 591 0
DWIDTH 13 0
BBX 11 14 1 0
BITMAP
E0E0
E0E0
FBE0
3B80
3B80
3B80
0E00
3F80
3F80
3B80
3B80
FBE0
E0E0
E0E0
ENDCHAR
STARTCHAR U+0059
ENCODING 89
SWIDTH 591 0
DWIDTH 13 0
BBX 11 14 1 0
BITMAP
E0E0
E0E0
E0E0
E0E0
FBE0
3B80
3F80
0E00
0E00
0E00
0E00
0E00
0E00
0E00
ENDCHAR
STARTCHAR U+005A
ENCODING 90
SWIDTH 591 0
DWIDTH 13 0
BBX 11 14 1 0
BITMAP
3FE0
3FE0
FFE0
E0E0
E1C0
0380
0700
0E00
1C00
38E0
78E0
FFE0
FF80
FF80
ENDCHAR
STARTCHAR U+005B
ENCODING 91
SWIDTH 409 0
DWIDTH 9 0
BBX 7 16 1 -1
BITMAP
3E
3E
FE
E0
E0
E0
E0
E0
E0
E0
E0
E0
E0
FE
3E
3E
ENDCHAR
STARTCHAR U+005C
ENCODING 92
SWIDTH 545 0
DWIDTH 12 0
BBX 10 14 1 0
BITMAP
E000
7000
7000
3800
3800
1C00
1C00
0E00
0E00
0700
0700
0380
0380
01C0
ENDCHAR
STARTCHAR U+005D
ENCODING 93
SWIDTH 409 0
DWIDTH 9 0
BBX 7 16 1 -1
BITMAP
F8
F8
FE
0E
0E
0E
0E
0E
0E
0E
0E
0E
0E
FE
F8
F8
ENDCHAR
STARTCHAR U+005E
ENCODING 94
SWIDTH 273 0
DWIDTH 6 0
BBX 4 2 1 11
BITMAP
60
F0
ENDCHAR
STARTCHAR U+005F
ENCODING 95
SWIDTH 455 0
DWIDTH 10 0
BBX 7 3 1 0
BITMAP
FE
FE
FE
ENDCHAR
STARTCHAR U+0060
ENCODING 96
SWIDTH 273 0
DWIDTH 6 0
BBX 4 3 1 11
BITMAP
E0
70
30
ENDCHAR
STARTCHAR U+0061
ENCODING 97
SWIDTH 682 0
DWIDTH 15 0
BBX 13 10 1 0
BITMAP
3F80
3F80
FFE0
E0E0
E0E0
E0E0
E0E0
FFF8
3FB8
3FB8
ENDCHAR
STARTCHAR U+0062
ENCODING 98
SWIDTH 591 0
DWIDTH 13 0
BBX 11 14 1 0
BITMAP
E000
E000
E000
E000
FF80
FF80
FFE0
E0E0
E0E0
E0E0
E0E0
FFE0
3F80
3F80
ENDCHAR
STARTCHAR U+0063
ENCODING 99
SWIDTH 591 0
DWIDTH 13 0
BBX 11 10 1 0
BITMAP
3F80
3F80
FFE0
E0E0
E000
E000
E0E0
FFE0
3F80
3F80
ENDCHAR
STARTCHAR U+0064
ENCODING 100
SWIDTH 591 0
DWIDTH 13 0
BBX 11 14 1 0
BITMAP
00E0
00E0
00E0
00E0
3FE0
3FE0
FFE0
E0E0
E0E0
E0E0
E0E0
FFE0
3F80
3F80
ENDCHAR
STARTCHAR U+0065
ENCODING 101
SWIDTH 591 0
DWIDTH 13 0
BBX 11 10 1 0
BITMAP
3F80
3F80
E0E0
E0E0
FFE0
FFE0
E000
E000
3FC0
3FC0
ENDCHAR
STARTCHAR U+0066
ENCODING 102
SWIDTH 591 0
DWIDTH 13 0
BBX 11 14 1 0
BITMAP
3F80
3F80
FFE0
E0E0
E0E0
E000
FE00
FE00
FE00
E000
E000
E000
E000
E000
ENDCHAR
STARTCHAR U+0067
ENCODING 103
SWIDTH 591 0
DWIDTH 13 0
BBX 11 15 1 -5
BITMAP
3F80
3F80
FFE0
E0E0
E0E0
E0E0
3FE0
3FE0
3FE0
00E0
E0E0
E0E0
FFE0
3F80
3F80
ENDCHAR
STARTCHAR U+0068
ENCODING 104
SWIDTH 591 0
DWIDTH 13 0
BBX 11 14 1 0
BITMAP
E000
E000
E000
E000
EF80
EF80
FFE0
F8E0
F8E0
E0E0
E0E0
E0E0
E0E0
E0E0
ENDCHAR
STARTCHAR U+0069
ENCODING 105
SWIDTH 273 0
DWIDTH 6 0
BBX 3 14 1 0
BITMAP
E0
E0
E0
00
E0
E0
E0
E0
E0
E0
E0
E0
E0
E0
ENDCHAR
STARTCHAR U+006A
ENCODING 106
SWIDTH 500 0
DWIDTH 11 0
BBX 9 14 1 0
BITMAP
0380
0380
0380
0000
0380
0380
0380
0380
0380
E380
E380
FF80
3E00
3E00
ENDCHAR
STARTCHAR U+006B
ENCODING 107
SWIDTH 591 0
DWIDTH 13 0
BBX 11 14 1 0
BITMAP
E000
E000
E000
E000
E0E0
E1E0
E3E0
E780
FF00
FF00
E780
E3E0
E1E0
E0E0
ENDCHAR
STARTCHAR U+006C
ENCODING 108
SWIDTH 273 0
DWIDTH 6 0
BBX 3 14 1 0
BITMAP
E0
E0
E0
E0
E0
E0
E0
E0
E0
E0
E0
E0
E0
E0
ENDCHAR
STARTCHAR U+006D
ENCODING 109
SWIDTH 773 0
DWIDTH 17 0
BBX 15 10 1 0
BITMAP
FEF8
FEF8
FFFE
E38E
E38E
E38E
E38E
E38E
E38E
E38E
ENDCHAR
STARTCHAR U+006E
ENCODING 110
SWIDTH 591 0
DWIDTH 13 0
BBX 11 10 1 0
BITMAP
FF80
FF80
FFE0
E0E0
E0E0
E0E0
E0E0
E0E0
E0E0
E0E0
ENDCHAR
STARTCHAR U+006F
ENCODING 111
SWIDTH 591 0
DWIDTH 13 0
BBX 11 10 1 0
BITMAP
3F80
3F80
FFE0
E0E0
E0E0
E0E0
E0E0
FFE0
3F80
3F80
ENDCHAR
STARTCHAR U+0070
ENCODING 112
SWIDTH 591 0
DWIDTH 13 0
BBX 11 14 1 -4
BITMAP
3F80
3F80
FFE0
E0E0
E0E0
E0E0
E0E0
FFE0
FF80
FF80
E000
E000
E000
E000
ENDCHAR
STARTCHAR U+0071
ENCODING 113
SWIDTH 591 0
DWIDTH 13 0
BBX 11 14 1 -4
BITMAP
3F80
3F80
FFE0
E0E0
E0E0
E0E0
E0E0
FFE0
3FE0
3FE0
00E0
00E0
00E0
00E0
ENDCHAR
STARTCHAR U+0072
ENCODING 114
SWIDTH 591 0
DWIDTH 13 0
BBX 11 10 1 0
BITMAP
3F80
3F80
FFE0
E0E0
E0E0
E000
E000
E000
E000
E000
ENDCHAR
STARTCHAR U+0073
ENCODING 115
SWIDTH 591 0
DWIDTH 13 0
BBX 11 10 1 0
BITMAP
3FE0
3FE0
FFE0
C000
FF80
3FE0
00E0
FFE0
FF80
FF80
ENDCHAR
STARTCHAR U+0074
ENCODING 116
SWIDTH 682 0
DWIDTH 15 0
BBX 13 14 1 0
BITMAP
3800
3800
3800
3800
FFE0
FFE0
FFE0
3800
3800
3838
3838
3FF8
0FE0
0FE0
ENDCHAR
STARTCHAR U+0075
ENCODING 117
SWIDTH 591 0
DWIDTH 13 0
BBX 11 10 1 0
BITMAP
E0E0
E0E0
E0E0
E0E0
E0E0
E0E0
E0E0
FFE0
3F80
3F80
ENDCHAR
STARTCHAR U+0076
ENCODING 118
SWIDTH 591 0
DWIDTH 13 0
BBX 11 10 1 0
BITMAP
E0E0
E0E0
E0E0
FBE0
3B80
3B80
3B80
3F80
0E00
0E00
ENDCHAR
STARTCHAR U+0077
ENCODING 119
SWIDTH 773 0
DWIDTH 17 0
BBX 15 10 1 0
BITMAP
E38E
E38E
E38E
E38E
E38E
E38E
E38E
FFFE
FEF8
FEF8
ENDCHAR
STARTCHAR U+0078
ENCODING 120
SWIDTH 591 0
DWIDTH 13 0
BBX 11 10 1 0
BITMAP
E0E0
E0E0
FBE0
3F80
3F80
3F80
3B80
FBE0
E0E0
E0E0
ENDCHAR
STARTCHAR U+0079
ENCODING 121
SWIDTH 591 0
DWIDTH 13 0
BBX 11 14 1 -4
BITMAP
E0E0
E0E0
E0E0
E0E0
E0E0
E0E0
3FE0
3FE0
3FE0
E0E0
E0E0
FFE0
3F80
3F80
ENDCHAR
STARTCHAR U+007A
ENCODING 122
SWIDTH 591 0
DWIDTH 13 0
BBX 11 10 1 0
BITMAP
FFE0
FFE0
FFE0
0F80
0E00
3E00
3800
FFE0
FFE0
FFE0
ENDCHAR
STARTCHAR U+007B
ENCODING 123
SWIDTH 500 0
DWIDTH 11 0
BBX 9 18 1 -2
BITMAP
0E00
0E00
3F80
3B80
3B80
3800
3800
3800
E000
E000
F800
3800
3800
3B80
3B80
3F80
0E00
0E00
ENDCHAR
STARTCHAR U+007C
ENCODING 124
SWIDTH 273 0
DWIDTH 6 0
BBX 3 14 1 0
BITMAP
E0
E0
E0
E0
E0
E0
E0
E0
E0
E0
E0
E0
E0
E0
ENDCHAR
STARTCHAR U+007D
ENCODING 125
SWIDTH 500 0
DWIDTH 11 0
BBX 9 18 1 -2
BITMAP
3800
3800
FE00
EE00
EE00
0E00
0E00
0E00
0380
0380
0F80
0E00
0E00
EE00
EE00
FE00
3800
3800
ENDCHAR
STARTCHAR U+007E
ENCODING 126
SWIDTH 591 0
DWIDTH 13 0
BBX 6 2 4 5
BITMAP
FC
FC
ENDCHAR
ENDFONT
